<?xml version="1.0" encoding="UTF-8" standalone="no"?>
<!-- Created with Inkscape (http://www.inkscape.org/) -->

<svg
   width="1000"
   height="270"
   viewBox="0 0 264.58332 71.437526"
   version="1.1"
   id="svg1"
   sodipodi:docname="STUPA-Sportbuddy-Logo.svg"
   inkscape:version="1.4.4 (dcaf3e7d9e, 2026-05-05)"
   xml:space="preserve"
   xmlns:inkscape="http://www.inkscape.org/namespaces/inkscape"
   xmlns:sodipodi="http://sodipodi.sourceforge.net/DTD/sodipodi-0.dtd"
   xmlns="http://www.w3.org/2000/svg"
   xmlns:svg="http://www.w3.org/2000/svg"><sodipodi:namedview
     id="namedview1"
     pagecolor="#505050"
     bordercolor="#eeeeee"
     borderopacity="1"
     inkscape:showpageshadow="0"
     inkscape:pageopacity="0"
     inkscape:pagecheckerboard="true"
     inkscape:deskcolor="#505050"
     inkscape:document-units="mm"
     labelstyle="default"
     inkscape:clip-to-page="false"
     inkscape:zoom="0.72457797"
     inkscape:cx="481.65969"
     inkscape:cy="171.82416"
     inkscape:window-width="1920"
     inkscape:window-height="1004"
     inkscape:window-x="0"
     inkscape:window-y="0"
     inkscape:window-maximized="1"
     inkscape:current-layer="layer1"
     showguides="true"><sodipodi:guide
       position="74.669226,47.240595"
       orientation="1,0"
       id="guide1"
       inkscape:locked="false" /><sodipodi:guide
       position="241.30657,28.120596"
       orientation="1,0"
       id="guide2"
       inkscape:locked="false" /></sodipodi:namedview><defs
     id="defs1"><clipPath
       clipPathUnits="userSpaceOnUse"
       id="clipPath155"><path
         d="m 58.961,783.842 h 113.386 v 29.701 H 58.961 Z"
         transform="translate(-95.530005,-786.38042)"
         id="path155" /></clipPath><clipPath
       clipPathUnits="userSpaceOnUse"
       id="clipPath156"><path
         d="m 58.961,783.842 h 113.386 v 29.701 H 58.961 Z"
         transform="translate(-100.9589,-793.67932)"
         id="path156" /></clipPath><clipPath
       clipPathUnits="userSpaceOnUse"
       id="clipPath157"><path
         d="m 58.961,783.842 h 113.386 v 29.701 H 58.961 Z"
         transform="translate(-84.798705,-783.84222)"
         id="path157" /></clipPath></defs><g
     inkscape:label="Ebene 1"
     inkscape:groupmode="layer"
     id="layer1"
     transform="translate(0,-43.656246)"><path
       d="m 0,0 h -4.762 c -1.304,0 -2.589,0.825 -3.819,2.451 l -0.005,0.005 c -0.243,0.335 -0.443,0.76 -0.805,1.543 l -0.177,0.385 2.942,0.782 0.383,-0.764 c 0.33,-0.579 1.089,-1.241 1.473,-1.448 0.037,-0.017 0.055,-0.017 0.094,-0.017 h 4.562 c 0.014,0 0.045,0.007 0.069,0.019 0.464,0.232 1.427,1.137 1.456,1.424 v 1.736 c 0,0.297 -0.207,0.579 -0.385,0.624 l -7.758,1.996 c -1.575,0.411 -2.292,1.975 -2.292,3.254 v 1.739 c 0,0.691 0.155,1.267 0.462,1.713 0.371,0.557 1.569,1.755 2.191,2.128 l 0.009,0.005 c 0.59,0.332 1.263,0.531 1.8,0.531 h 4.191 c 1.284,0 2.559,-0.824 3.789,-2.448 0.238,-0.298 0.466,-0.712 0.84,-1.523 L 4.432,13.758 1.467,12.905 1.05,13.741 c -0.269,0.537 -1.06,1.205 -1.439,1.422 -0.016,0.003 -0.04,0.006 -0.067,0.006 h -3.963 c -0.034,0 -0.043,-0.004 -0.096,-0.022 -0.009,-0.003 -0.017,-0.006 -0.026,-0.009 -0.383,-0.192 -1.367,-1.131 -1.432,-1.419 v -1.615 c 0,-0.282 0.188,-0.525 0.357,-0.567 L 2.116,9.483 C 3.476,9.12 4.462,7.776 4.462,6.287 V 4.348 C 4.462,3.658 4.307,3.083 4.002,2.637 3.639,2.094 2.445,0.917 1.809,0.536 L 1.8,0.53 C 1.209,0.198 0.537,0 0,0 M 15.24,0.143 H 12.189 V 15.026 H 7.313 v 2.937 H 20.116 V 15.026 H 15.24 Z M 31.649,0 h -3.82 C 27.176,0 26.456,0.274 26,0.53 l -0.009,0.006 c -0.614,0.368 -1.797,1.55 -2.166,2.103 -0.322,0.469 -0.487,1.036 -0.487,1.681 v 13.643 h 3.051 V 4.389 C 26.464,4.093 27.5,3.144 27.894,2.96 l 0.008,-0.004 c 0.039,-0.019 0.039,-0.019 0.069,-0.019 h 3.536 c 0.048,0 0.079,0.01 0.097,0.019 l 0.009,0.004 c 0.388,0.181 1.345,1.148 1.419,1.43 v 13.573 h 3.051 V 4.32 c 0,-0.69 -0.146,-1.225 -0.46,-1.683 C 35.252,2.083 34.072,0.904 33.458,0.536 L 33.449,0.53 C 32.859,0.198 32.186,0 31.649,0 m 11.533,0.143 h -3.05 v 17.82 h 8.397 c 0.738,0 1.55,-0.255 2.119,-0.666 0.434,-0.311 1.347,-1.225 1.599,-1.603 0.352,-0.544 0.544,-1.19 0.544,-1.822 v -2.567 c 0,-0.632 -0.182,-1.234 -0.542,-1.79 L 52.247,9.511 C 51.987,9.122 51.04,8.209 50.618,7.907 50.066,7.509 49.285,7.271 48.529,7.271 h -5.347 z m 0,10.065 H 48.5 c 0.282,0 0.912,0.547 1.215,0.982 0.007,0.014 0.025,0.079 0.025,0.172 v 2.481 c 0,0.085 -0.013,0.126 -0.038,0.201 -0.079,0.229 -0.826,0.938 -1.08,0.982 h -5.44 z M 69.332,0.143 h -3.267 l -1.283,3.82 h -6.903 l -1.311,-3.82 h -3.237 l 6.207,17.82 h 3.586 z M 58.864,6.872 h 4.935 l -2.468,7.235 z"
       style="fill:#000000;fill-opacity:1;fill-rule:nonzero;stroke:none;stroke-width:1.09785"
       transform="matrix(2.1120072,0,0,-2.1120072,94.876899,86.97316)"
       clip-path="url(#clipPath156)"
       id="path227" /><path
       d="M 0,0 V 0 29.701 C 0.696,29.005 1.086,28.615 1.782,27.919 V 1.782 C 1.086,1.086 0.696,0.696 0,0"
       style="fill:#000000;fill-opacity:1;fill-rule:nonzero;stroke:none"
       transform="matrix(2.3186545,0,0,-2.3186545,60.75005,113.80792)"
       clip-path="url(#clipPath157)"
       id="path228" /><g
       id="g12"
       transform="matrix(0.17739765,0,0,0.17739765,0.84795266,51.893443)"
       style="stroke-width:3.84848">
	<g
   id="g11"
   style="stroke-width:3.84848">
		<g
   id="g1"
   style="stroke-width:3.84848">
			<path
   style="fill:#008b92;stroke-width:3.84848;fill-opacity:1"
   d="m 80.988,61.135 c 0.06,0.234 0.092,0.549 0.136,0.903 l 0.033,0.272 c 0.228,1.784 0.5,4.003 1.719,4.873 1.958,1.496 5.912,-1.148 8.376,-2.845 l 0.522,-0.354 c 0.332,-0.223 0.609,-0.419 0.843,-0.555 7.653,-4.591 16.72,-8.784 26.934,-12.483 1.615,-0.577 3.225,-1.164 4.841,-1.768 l 2.132,-0.772 c 9.616,-3.552 19.553,-7.234 29.888,-9.584 13.951,-3.214 29.104,-4.645 49.109,-4.645 4.966,0 10.03,0.435 14.908,0.859 l 0.881,0.071 c 1.67,0.152 3.334,0.305 5.004,0.419 0.549,0.049 1.534,0.114 2.545,0.114 2.388,0 3.508,-0.321 3.764,-1.093 0.196,-0.593 -0.245,-1.251 -1.322,-2.04 -5.086,-3.699 -11.449,-6.598 -17.062,-9.165 -17.003,-7.729 -36.045,-12.135 -56.577,-13.086 -2.894,-0.147 -5.325,-0.212 -7.647,-0.212 -10.378,0 -18.139,1.479 -23.725,4.504 -11.814,6.396 -22.42,12.265 -32.433,19.129 -0.794,0.538 -1.719,1.093 -2.676,1.675 l -0.234,0.141 c -3.394,2.056 -7.185,4.357 -8.936,7.234 -3.318,5.385 -2.072,12.428 -1.077,18.085 z"
   id="path1" />
		</g>
		<g
   id="g2"
   style="stroke-width:3.84848">
			<path
   style="fill:#66c644;stroke-width:3.84848;fill-opacity:1"
   d="m 39.112,95.488 c 9.203,33.711 33.706,67.2 68.989,94.275 6.728,5.183 14.218,10.133 22.926,15.148 0.723,0.413 1.496,0.887 2.29,1.387 2.807,1.74 5.765,3.584 8.545,4.259 2.219,0.549 3.247,-1.044 3.873,-2.845 0.685,-2.089 1.289,-4.199 1.882,-6.326 l 0.816,-2.899 c 2.807,-9.97 4.705,-19.744 5.635,-29.066 l 0.218,-1.817 c 0.441,-3.633 0.941,-7.669 -0.065,-11.123 -0.707,-2.382 -3.601,-3.987 -6.146,-5.401 -0.974,-0.533 -1.817,-0.995 -2.491,-1.463 -2.834,-1.969 -5.716,-3.873 -8.615,-5.771 -4.884,-3.214 -10.416,-6.859 -15.463,-10.78 -6.037,-4.667 -11.389,-8.936 -15.969,-13.962 C 96.291,109.091 88.768,96.325 81.79,78.942 78.847,71.442 77.009,63.147 76.144,53.563 76.09,53.112 76.122,52.437 76.16,51.648 l 0.016,-0.419 c 0.158,-2.812 0.354,-6.293 -1.441,-7.071 -0.859,-0.386 -2.121,-0.577 -3.655,-0.577 -2.692,0 -5.706,0.593 -7.636,1.142 -7.887,2.279 -14.093,10.427 -19.075,16.97 -0.664,0.876 -1.311,1.708 -1.953,2.529 l -1.365,1.702 c -1.833,2.252 -3.905,4.792 -4.471,7.604 -1.463,7.011 0.408,14 2.219,20.766 z"
   id="path2" />
		</g>
		<g
   id="g3"
   style="stroke-width:3.84848">
			<path
   style="fill:#3f368b;stroke-width:3.84848;fill-opacity:1"
   d="m 226.934,78.034 c -22.099,0 -45.84,5.031 -68.641,14.549 -12.031,5.004 -25.498,10.612 -37.796,17.177 -0.957,0.522 -2.04,0.995 -3.149,1.485 l -0.305,0.131 c -2.317,1.012 -4.656,2.029 -6.326,3.503 -0.49,0.419 -0.751,0.93 -0.789,1.561 -0.065,0.778 0.256,1.637 0.843,2.306 2.573,2.856 5.803,5.216 8.92,7.5 1.039,0.756 2.056,1.512 3.057,2.268 l 0.751,0.571 c 6.761,5.151 13.108,9.997 20.173,14.43 0.778,0.5 1.632,1.164 2.545,1.882 l 0.337,0.256 c 2.921,2.301 6.222,4.884 9.453,4.999 1.909,0 4.052,-1.246 5.939,-2.35 0.963,-0.555 1.762,-1.017 2.513,-1.343 l 2.758,-1.213 c 5.423,-2.393 11.574,-5.096 17.606,-7.348 17.258,-6.38 35.751,-9.741 54.956,-9.992 l 1.387,-0.005 c 11.776,0 24.182,2.284 34.038,6.26 3.628,1.485 6.712,3.013 9.453,4.694 l 0.571,0.343 c 1.12,0.707 2.73,1.474 3.905,0.838 1.044,-0.538 1.398,-1.648 1.719,-2.627 l 0.136,-0.441 c 0.761,-2.366 1.365,-4.863 1.915,-7.854 1.8,-9.317 0.049,-16.703 -3.595,-26.314 -0.234,-0.587 -0.457,-1.229 -0.691,-1.904 -0.914,-2.605 -1.958,-5.548 -4.019,-7.321 -10.813,-9.48 -25.455,-12.722 -37.007,-14.495 -6.624,-1.034 -13.57,-1.546 -20.657,-1.546 z"
   id="path3" />
		</g>
		<g
   id="g4"
   style="stroke-width:3.84848">
			<path
   style="fill:#059e92;stroke-width:3.84848;fill-opacity:1"
   d="m 113.66,266.133 0.457,-0.446 c 1.751,-1.692 3.242,-3.334 2.355,-5.227 -0.413,-0.925 -1.43,-1.474 -2.317,-1.974 l -0.538,-0.315 c -1.251,-0.767 -2.475,-1.512 -3.699,-2.257 l -2.692,-1.659 C 99.535,249.632 92.301,244.737 85.742,239.711 66.819,225.189 49.159,206.571 34.68,185.897 28.208,176.689 23.247,168.351 19.538,160.431 l -1.36,-3.117 c -0.843,-1.898 -1.681,-3.802 -2.556,-5.646 l -0.267,-0.642 c -0.419,-1.028 -0.925,-2.284 -1.898,-2.877 -0.218,-0.125 -0.468,-0.201 -0.702,-0.201 -0.892,0 -1.327,0.903 -1.479,3.1 -0.136,2.763 0,5.608 0.169,8.501 l 0.065,1.246 c 0.669,12.581 2.948,24.802 6.777,36.306 4.547,13.69 10.084,25.341 16.926,35.631 l 1.43,2.17 c 1.882,2.894 3.829,5.852 6.206,8.311 11.041,11.574 26.602,19.124 38.933,24.405 1.751,0.767 3.519,1.643 5.298,2.535 3.59,1.795 7.288,3.644 11.161,4.569 1.931,0.43 3.753,-0.386 5.733,-1.436 3.665,-1.991 6.901,-4.384 9.686,-7.153 z"
   id="path4" />
		</g>
		<g
   id="g5"
   style="stroke-width:3.84848">
			<path
   style="fill:#0075bf;stroke-width:3.84848;fill-opacity:1"
   d="m 215.55,38.694 c -4.705,-0.37 -9.507,-0.549 -14.267,-0.549 -26.673,0 -53.417,5.591 -81.744,17.138 -8.387,3.394 -17.878,7.25 -26.374,12.537 -0.593,0.37 -1.354,0.729 -2.148,1.11 l -0.332,0.158 c -2.029,0.946 -4.324,2.034 -5.401,3.552 -1.447,2.105 0.354,5.988 1.534,8.55 0.321,0.723 0.609,1.365 0.816,1.898 2.709,7.109 6.63,14.31 11.667,21.43 0.441,0.593 0.887,1.284 1.343,1.996 1.12,1.735 2.371,3.682 3.9,4.83 1.458,1.175 3.443,0.332 4.993,-0.538 0.267,-0.163 0.538,-0.305 0.778,-0.435 4.324,-2.121 8.675,-4.324 12.918,-6.527 3.628,-1.871 7.43,-3.47 11.101,-5.031 l 1.131,-0.479 c 1.556,-0.653 3.106,-1.322 4.645,-2.002 13.783,-6.162 25.553,-11.068 38.204,-14.908 16.236,-4.873 32.536,-7.348 48.451,-7.348 8.284,0 16.442,0.691 24.226,2.04 7.772,1.338 14.593,3.122 20.255,5.276 0.212,0.082 0.517,0.228 0.903,0.402 l -0.169,1.11 0.457,-0.979 c 1.403,0.653 3.329,1.534 4.656,1.534 0.723,0 1.115,-0.272 1.316,-0.5 0.674,-0.767 0.343,-1.681 -0.354,-2.828 l -0.207,-0.332 c -1.186,-1.964 -2.518,-4.03 -4.319,-6.723 -7.332,-10.992 -14.821,-19.679 -22.3,-25.819 -8.474,-6.946 -20.179,-7.626 -30.524,-8.229 -1.734,-0.101 -3.469,-0.204 -5.155,-0.334 z"
   id="path5" />
		</g>
		<g
   id="g6"
   style="stroke-width:3.84848">
			<path
   style="fill:#19b072;stroke-width:3.84848;fill-opacity:1"
   d="m 86.318,235.153 c 7.185,5.678 14.756,10.541 23.192,15.871 0.745,0.462 1.599,1.071 2.491,1.713 2.545,1.833 5.396,3.878 7.827,4.253 0.12,0.022 0.272,0.038 0.402,0.038 2.709,0 5.167,-4.047 6.63,-6.467 l 0.691,-1.115 c 4.922,-7.767 8.561,-16.192 11.863,-24.144 0.201,-0.5 0.5,-1.115 0.838,-1.784 1.18,-2.448 2.66,-5.499 1.577,-7.658 -0.528,-1.033 -1.67,-1.577 -2.692,-2.051 -0.288,-0.125 -0.555,-0.256 -0.821,-0.402 l -1.931,-1.012 c -2.061,-1.077 -4.155,-2.17 -6.222,-3.318 -8.023,-4.4 -16.339,-9.91 -25.406,-16.834 C 80.368,173.587 59.972,150.003 47.348,125.799 42.012,115.606 37.759,105.12 34.713,94.622 33.941,92.049 33.462,89.547 32.88,86.55 L 32.803,86.1 c -0.136,-1.191 -0.375,-2.426 -1.43,-2.796 -0.131,-0.038 -0.299,-0.065 -0.451,-0.065 -1.142,0 -1.838,1.164 -2.497,2.469 -1.474,2.709 -2.888,5.635 -4.493,9.219 -4.036,9.034 -7.18,18.645 -9.35,28.582 l -0.381,1.67 c -0.87,3.617 -1.833,7.718 -0.669,11.281 11.509,35.393 37.356,70.437 72.786,98.693 z"
   id="path6" />
		</g>
		<g
   id="g7"
   style="stroke-width:3.84848">
			<path
   style="fill:#ffcc00;stroke-width:3.84848;fill-opacity:1"
   d="m 292.497,175.171 c -0.109,-0.908 -0.218,-1.811 -0.299,-2.703 -0.789,-7.321 -1.953,-14.071 -3.443,-20.054 l -0.239,-0.963 c -0.587,-2.371 -1.3,-5.303 -3.465,-6.962 -3.002,-2.219 -6.826,-4.166 -12.053,-6.124 l -0.615,-0.239 c -0.74,-0.315 -1.811,-0.658 -2.801,-0.658 -0.674,0 -1.197,0.163 -1.566,0.5 -1.316,1.213 -1.126,4.221 -0.984,6.641 l 0.038,0.642 c 0.022,0.566 0.038,1.066 0.016,1.463 -0.343,8.061 -1.028,15.654 -2.099,23.214 l -0.12,0.876 c -1.719,12.303 -3.519,25.02 -6.783,37.274 -3.04,11.525 -7.87,24.013 -14.375,37.132 -4.727,9.567 -11.542,18.357 -18.699,27.266 -0.664,0.832 -1.343,1.659 -2.018,2.486 l -0.359,0.441 c -0.859,1.05 -1.708,2.105 -2.573,3.198 -1.615,2.127 -0.702,2.823 -0.31,3.117 0.587,0.419 1.849,-0.038 2.638,-0.484 l 0.321,-0.174 c 2.094,-1.093 4.134,-2.268 6.157,-3.427 l 0.299,-0.174 c 10.568,-6.347 18.901,-12.602 25.46,-19.113 16.208,-16.214 36.061,-41.549 38.59,-70.169 0.375,-4.019 -0.141,-8.235 -0.631,-12.319 z"
   id="path7" />
		</g>
		<g
   id="g8"
   style="stroke-width:3.84848">
			<path
   style="fill:#000000;stroke-width:3.84848;fill-opacity:1"
   d="M 155.019,0 C 69.408,0 0,69.408 0,155.019 0,240.63 69.408,310.038 155.019,310.038 240.63,310.038 310.038,240.63 310.038,155.019 310.038,58.437 227.462,0 155.019,0 Z m 95.542,268.146 c -26.026,22.023 -59.672,34.141 -94.748,34.141 h -0.005 -0.033 c -35.354,0 -69.337,-12.249 -95.646,-34.484 C 33.722,245.487 15.648,215.137 9.225,182.344 4.047,155.731 6.255,127.301 15.415,102.303 30.405,61.532 64.399,27.728 104.153,14.06 c 18.031,-6.233 36.202,-9.121 54.032,-8.648 27.663,0.772 53.988,8.762 76.109,23.094 6.451,4.194 11.966,8.947 17.818,13.968 2.181,1.893 4.313,3.726 6.511,5.542 9.23,7.729 18.167,19.314 26.521,34.435 22.877,41.217 24.644,93.035 4.629,135.226 -9.052,19.042 -22.612,36.496 -39.212,50.469 z"
   id="path8-3" />
		</g>
		<g
   id="g9"
   style="stroke-width:3.84848">
			<path
   style="fill:#ce1625;stroke-width:3.84848;fill-opacity:1"
   d="m 170.003,278.562 c 16.339,-20.451 27.467,-41.816 33.075,-63.517 2.219,-8.55 3.65,-17.024 5.015,-25.689 2.176,-13.81 2.991,-27.201 3.552,-39.613 0.201,-3.492 0.223,-6.755 0.082,-9.709 l -0.038,-0.468 c -0.103,-1.43 -0.261,-2.654 -1.392,-3.329 -0.343,-0.179 -0.87,-0.288 -1.501,-0.288 -0.587,0 -1.278,0.098 -2.029,0.283 l -4.922,1.229 c -1.246,0.321 -2.491,0.625 -3.731,0.946 -8.104,2.04 -15.8,5.428 -23.263,8.713 -1.55,0.674 -3.084,1.349 -4.65,2.029 -0.767,0.337 -1.702,0.674 -2.709,1.033 -3.03,1.088 -6.418,2.29 -7.957,4.422 -1.262,1.724 -1.099,4.417 -0.968,6.777 0.076,1.023 0.136,1.898 0.103,2.649 -0.343,6.783 -1.256,13.581 -2.638,19.657 -4.727,20.712 -11.253,44.693 -23.79,65.584 -5.118,8.528 -11.64,16.317 -18.351,21.936 -2.393,2.023 -4.933,3.758 -7.772,5.325 -0.223,0.125 -0.495,0.272 -0.789,0.408 -1.077,0.522 -2.404,1.175 -2.856,2.48 -0.408,1.452 0.435,2.611 1.262,3.742 1.882,2.486 4.074,5.265 6.549,6.891 2.192,1.36 5.096,2.023 7.653,2.605 l 1.681,0.386 c 6.929,1.768 13.94,3.078 20.848,3.889 0.658,0.076 1.382,0.179 2.132,0.294 3.182,0.468 6.712,0.74 8.8,-0.158 6.456,-2.785 11.64,-9.497 16.203,-15.42 0.851,-1.113 1.634,-2.135 2.401,-3.087 z"
   id="path9-6" />
		</g>
		<g
   id="g10"
   style="stroke-width:3.84848">
			<path
   style="fill:#f18700;stroke-width:3.84848;fill-opacity:1"
   d="m 239.411,244.736 c 11.525,-21.642 16.741,-45.22 20.005,-63.338 2.312,-12.945 3.552,-24.247 3.786,-34.533 0,-0.441 0.044,-1.012 0.098,-1.637 l 0.027,-0.315 c 0.256,-3.285 0.647,-8.257 -1.909,-9.801 -1.898,-1.05 -4.612,-1.3 -7.022,-1.528 l -0.343,-0.033 c -0.626,-0.065 -1.229,-0.12 -1.789,-0.196 -4.019,-0.528 -7.854,-0.772 -12.091,-0.772 -3.835,0 -8.104,0.212 -13.043,0.642 -0.533,0.033 -1.202,0.033 -1.931,0.033 -3.541,0.005 -7.713,0.016 -9.165,2.099 -1.159,1.779 -0.881,5.151 -0.625,8.142 0.076,1.012 0.141,1.925 0.141,2.654 0,8.958 -0.375,17.568 -1.148,25.596 -2.426,24.144 -6.641,52.041 -19.466,75.859 -8.333,15.458 -16.769,27.875 -25.776,37.959 l -2.975,3.231 c -1.382,1.512 -2.774,3.019 -4.068,4.542 -0.8,0.887 -1.583,1.871 -1.49,2.817 0.038,0.402 0.272,0.783 0.642,1.061 0.522,0.375 1.376,0.577 2.529,0.577 1.409,0 3.062,-0.277 4.4,-0.5 0.778,-0.125 1.376,-0.223 1.849,-0.267 8.159,-0.849 16.486,-2.486 24.742,-4.83 l 1.648,-0.435 c 2.736,-0.723 5.733,-1.528 8.055,-2.943 1.887,-1.142 3.367,-2.768 4.808,-4.324 0.538,-0.609 1.05,-1.159 1.566,-1.681 4.324,-4.444 8.507,-9.317 13.201,-15.344 5.489,-7.06 11.145,-14.712 15.344,-22.735 z"
   id="path10-7" />
		</g>
	</g>
</g><text
       xml:space="preserve"
       style="font-weight:900;font-size:14.1111px;line-height:1.25;font-family:Poppins;-inkscape-font-specification:'Poppins Heavy';letter-spacing:-0.238125px;writing-mode:lr-tb;direction:ltr;white-space:pre;inline-size:131.608;fill:#3f368b;stroke-width:0.159682;stroke-linecap:round;stroke-linejoin:round;paint-order:markers stroke fill"
       x="85.446297"
       y="104.72157"
       id="text1"
       transform="matrix(1.6569325,0,0,1.6569325,-67.916508,-66.645937)"><tspan
         x="85.446297"
         y="104.72157"
         id="tspan3"><tspan
           style="font-weight:bold;font-family:Blender-Bold;-inkscape-font-specification:'Blender-Bold Bold';fill:#000000"
           id="tspan2">Sportpartnerbörse</tspan></tspan></text></g></svg>
